<svg width="188" height="263" viewBox="0 0 188 263" fill="none" xmlns="http://www.w3.org/2000/svg">
<path d="M170.924 2C125.466 30.4246 90.1946 69.0815 74.3131 121.184C64.6352 152.934 70.8761 187.41 97.2682 208.988C117.738 225.724 137.693 214.171 155.953 198.99C178.312 180.401 198.809 147.828 176.114 121.184C153.294 94.393 95.0042 88.6934 65.9294 104.851C12.5439 134.517 6.82076 203.129 12.8333 256.8" stroke="#1D8BCF" stroke-opacity="0.6" stroke-width="3" stroke-linecap="round"/>
<path d="M2 233.636C4.77064 240.277 6.25531 247.415 8.77649 254.161C9.61527 256.405 10.0881 258.781 10.9828 260.993" stroke="#1D8BCF" stroke-opacity="0.6" stroke-width="3" stroke-linecap="round"/>
<path d="M12.4014 260.525C13.6544 258.503 14.2839 256.127 15.133 253.927C16.4941 250.399 18.2158 247.08 19.8476 243.677C21.0112 241.251 23.1244 238.422 23.5117 235.741" stroke="#1D8BCF" stroke-opacity="0.6" stroke-width="3" stroke-linecap="round"/>
</svg>
